<svg width="26" height="24" viewBox="0 0 26 24" fill="none" xmlns="http://www.w3.org/2000/svg">
<path d="M26 7.59708C26 9.14408 25.753 10.5741 25.324 11.9001H0.676C0.247 10.5741 0 9.14408 0 7.59708C0 3.58008 3.237 0.330078 7.228 0.330078C9.581 0.330078 11.687 1.47408 13 3.22908C14.313 1.47408 16.419 0.330078 18.772 0.330078C22.763 0.330078 26 3.58008 26 7.59708Z" fill="#F71818"/>
<path d="M25.324 11.8501C23.27 18.3501 16.939 22.2371 13.806 23.3031C13.364 23.4591 12.636 23.4591 12.194 23.3031C9.06103 22.2371 2.73003 18.3501 0.676025 11.8501H25.324Z" fill="#F71818"/>
</svg>
